<mxfile host="app.diagrams.net" agent="Mozilla/5.0 (Windows NT 10.0; Win64; x64) AppleWebKit/537.36 (KHTML, like Gecko) Chrome/132.0.0.0 Safari/537.36 Edg/132.0.0.0" version="26.0.7">
  <diagram name="Página-1" id="tN3IekCWs54SHfN6VaQg">
    <mxGraphModel dx="983" dy="1653" grid="1" gridSize="10" guides="1" tooltips="1" connect="1" arrows="1" fold="1" page="1" pageScale="1" pageWidth="827" pageHeight="1169" math="0" shadow="0">
      <root>
        <mxCell id="0" />
        <mxCell id="1" parent="0" />
        <mxCell id="gFHxkPYIYCyyXqjVZrkO-33" value="" style="edgeStyle=orthogonalEdgeStyle;rounded=0;orthogonalLoop=1;jettySize=auto;html=1;" edge="1" parent="1" source="gFHxkPYIYCyyXqjVZrkO-1" target="gFHxkPYIYCyyXqjVZrkO-32">
          <mxGeometry relative="1" as="geometry">
            <Array as="points">
              <mxPoint x="686" y="170" />
              <mxPoint x="250" y="170" />
            </Array>
          </mxGeometry>
        </mxCell>
        <mxCell id="gFHxkPYIYCyyXqjVZrkO-38" style="edgeStyle=orthogonalEdgeStyle;rounded=0;orthogonalLoop=1;jettySize=auto;html=1;" edge="1" parent="1" source="gFHxkPYIYCyyXqjVZrkO-1" target="gFHxkPYIYCyyXqjVZrkO-37">
          <mxGeometry relative="1" as="geometry">
            <Array as="points">
              <mxPoint x="686" y="170" />
              <mxPoint x="414" y="170" />
            </Array>
          </mxGeometry>
        </mxCell>
        <mxCell id="gFHxkPYIYCyyXqjVZrkO-43" style="edgeStyle=orthogonalEdgeStyle;rounded=0;orthogonalLoop=1;jettySize=auto;html=1;entryX=0.5;entryY=0;entryDx=0;entryDy=0;" edge="1" parent="1" source="gFHxkPYIYCyyXqjVZrkO-1" target="gFHxkPYIYCyyXqjVZrkO-40">
          <mxGeometry relative="1" as="geometry">
            <Array as="points">
              <mxPoint x="686" y="170" />
              <mxPoint x="600" y="170" />
            </Array>
          </mxGeometry>
        </mxCell>
        <mxCell id="gFHxkPYIYCyyXqjVZrkO-1" value="INDEX.HTML" style="rounded=0;whiteSpace=wrap;html=1;fillColor=#dae8fc;strokeColor=#6c8ebf;" vertex="1" parent="1">
          <mxGeometry x="580" y="70" width="213" height="50" as="geometry" />
        </mxCell>
        <mxCell id="gFHxkPYIYCyyXqjVZrkO-2" value="&lt;ol&gt;&lt;li style=&quot;text-align: left;&quot;&gt;Imagen Logotipo + Nombre Web o Lema&lt;/li&gt;&lt;li style=&quot;text-align: left;&quot;&gt;Barra de navegación menu (Blog, Destinos, Consejos, Nosotros, Experiencias,Mapa, Contacto)&lt;/li&gt;&lt;li style=&quot;text-align: left;&quot;&gt;Galeria de Fotos (determinar forma no se si cajitas varias o un slideshow) con algun texto explicativo sobreexpuesto&lt;/li&gt;&lt;li style=&quot;text-align: left;&quot;&gt;Footer con datos de contacto, terminos legales y redes sociales&lt;/li&gt;&lt;/ol&gt;" style="ellipse;whiteSpace=wrap;html=1;" vertex="1" parent="1">
          <mxGeometry x="990" y="-55" width="400" height="200" as="geometry" />
        </mxCell>
        <mxCell id="gFHxkPYIYCyyXqjVZrkO-16" value="" style="endArrow=none;dashed=1;html=1;dashPattern=1 3;strokeWidth=2;rounded=0;exitX=1;exitY=0.5;exitDx=0;exitDy=0;entryX=0;entryY=0.5;entryDx=0;entryDy=0;" edge="1" parent="1" source="gFHxkPYIYCyyXqjVZrkO-1" target="gFHxkPYIYCyyXqjVZrkO-2">
          <mxGeometry width="50" height="50" relative="1" as="geometry">
            <mxPoint x="850" y="380" as="sourcePoint" />
            <mxPoint x="900" y="330" as="targetPoint" />
          </mxGeometry>
        </mxCell>
        <mxCell id="gFHxkPYIYCyyXqjVZrkO-32" value="EUROPA" style="whiteSpace=wrap;html=1;fillColor=#dae8fc;strokeColor=#6c8ebf;rounded=0;" vertex="1" parent="1">
          <mxGeometry x="190" y="260" width="120" height="60" as="geometry" />
        </mxCell>
        <mxCell id="gFHxkPYIYCyyXqjVZrkO-37" value="AFRICA" style="rounded=0;whiteSpace=wrap;html=1;fillColor=#dae8fc;strokeColor=#6c8ebf;" vertex="1" parent="1">
          <mxGeometry x="344" y="260" width="140" height="60" as="geometry" />
        </mxCell>
        <mxCell id="gFHxkPYIYCyyXqjVZrkO-40" value="AMERICA" style="rounded=0;whiteSpace=wrap;html=1;fillColor=#dae8fc;strokeColor=#6c8ebf;" vertex="1" parent="1">
          <mxGeometry x="530" y="260" width="140" height="60" as="geometry" />
        </mxCell>
        <mxCell id="gFHxkPYIYCyyXqjVZrkO-41" value="ASIA" style="rounded=0;whiteSpace=wrap;html=1;fillColor=#dae8fc;strokeColor=#6c8ebf;" vertex="1" parent="1">
          <mxGeometry x="720" y="260" width="140" height="60" as="geometry" />
        </mxCell>
        <mxCell id="gFHxkPYIYCyyXqjVZrkO-42" value="OCEANIA&lt;div&gt;&lt;br&gt;&lt;/div&gt;" style="rounded=0;whiteSpace=wrap;html=1;fillColor=#dae8fc;strokeColor=#6c8ebf;" vertex="1" parent="1">
          <mxGeometry x="910" y="260" width="140" height="60" as="geometry" />
        </mxCell>
        <mxCell id="gFHxkPYIYCyyXqjVZrkO-44" style="edgeStyle=orthogonalEdgeStyle;rounded=0;orthogonalLoop=1;jettySize=auto;html=1;entryX=0.5;entryY=0;entryDx=0;entryDy=0;" edge="1" parent="1" source="gFHxkPYIYCyyXqjVZrkO-1" target="gFHxkPYIYCyyXqjVZrkO-41">
          <mxGeometry relative="1" as="geometry">
            <Array as="points">
              <mxPoint x="686" y="170" />
              <mxPoint x="790" y="170" />
            </Array>
          </mxGeometry>
        </mxCell>
        <mxCell id="gFHxkPYIYCyyXqjVZrkO-46" style="edgeStyle=orthogonalEdgeStyle;rounded=0;orthogonalLoop=1;jettySize=auto;html=1;" edge="1" parent="1" source="gFHxkPYIYCyyXqjVZrkO-1">
          <mxGeometry relative="1" as="geometry">
            <mxPoint x="980" y="260" as="targetPoint" />
            <Array as="points">
              <mxPoint x="686" y="170" />
              <mxPoint x="980" y="170" />
            </Array>
          </mxGeometry>
        </mxCell>
      </root>
    </mxGraphModel>
  </diagram>
</mxfile>
